<?xml version="1.0" encoding="utf-8"?>
<!-- Generator: Adobe Illustrator 23.0.3, SVG Export Plug-In . SVG Version: 6.00 Build 0)  -->
<svg version="1.1" id="Capa_1" xmlns="http://www.w3.org/2000/svg" xmlns:xlink="http://www.w3.org/1999/xlink" x="0px" y="0px"
	 viewBox="0 0 512 512" style="enable-background:new 0 0 512 512;" xml:space="preserve">
<style type="text/css">
	.st0{fill:#FFFFFF;}
</style>
<path d="M124.5,376c-4.3,0-8.3-1.6-11.3-4.6L8.6,267.4l-0.4-0.5l-0.1-0.1L8,266.5c-2.6-3-4-6.6-4-10.5c0-4.3,1.7-8.4,4.6-11.4
	l104.5-104c3-3,7-4.6,11.2-4.6c4.4,0,8.5,1.8,11.4,4.8c3,3,4.6,7,4.6,11.2c0,4.3-1.7,8.3-4.7,11.3l-77,76.6H492c8.8,0,16,7.2,16,16
	s-7.2,16-16,16H58.8l77.1,76.6c6.2,6.2,6.2,16.3,0.1,22.5C133,374.2,128.9,376,124.5,376z"/>
<path class="st0" d="M124.5,378c-4.8,0-9.3-1.9-12.7-5.2L7.1,268.7l-0.4-0.5l-0.1-0.1l-0.2-0.3C3.5,264.5,2,260.4,2,256
	c0-4.8,1.9-9.4,5.2-12.8l104.5-104c3.4-3.4,7.9-5.2,12.7-5.2c4.9,0,9.6,2,12.9,5.4c3.3,3.4,5.1,7.8,5.1,12.6c0,4.8-1.9,9.3-5.3,12.7
	L63.6,238H492c9.9,0,18,8.1,18,18c0,9.9-8.1,18-18,18H63.6l73.6,73.2c7,7,7,18.3,0.1,25.3C134.1,376,129.4,378,124.5,378z"/>
</svg>
