<?xml version="1.0" encoding="utf-8"?>
<!-- Generator: Adobe Illustrator 23.0.3, SVG Export Plug-In . SVG Version: 6.00 Build 0)  -->
<svg version="1.1" xmlns="http://www.w3.org/2000/svg" xmlns:xlink="http://www.w3.org/1999/xlink" x="0px" y="0px"
	 viewBox="0 0 336.6 150" style="enable-background:new 0 0 336.6 150;" xml:space="preserve">
<style type="text/css">
	.st0{fill:#7AC043;}
	.st1{fill:#F55B15;}
</style>
<g id="background">
</g>
<g id="Logo">
	<g>
		<g>
			<path class="st0" d="M165.8,18.7"/>
		</g>
		<g>
			<g>
				<polygon class="st1" points="16.8,51.9 16.8,106.3 61.8,131.3 61.8,117.1 61.8,56.2 46.3,70.6 46.3,108.5 42.5,106.5 42.5,73.6 
					32.9,82.1 32.9,101.3 29.1,99.2 29.1,59 63.9,38.9 63.9,24.7 				"/>
			</g>
			<g>
				<polygon class="st1" points="16.8,51.9 16.8,106.3 61.8,131.3 61.8,117.1 61.8,56.2 46.3,70.6 46.3,108.5 42.5,106.5 42.5,73.6 
					32.9,82.1 32.9,101.3 29.1,99.2 29.1,59 63.9,38.9 63.9,24.7 				"/>
			</g>
			<g>
				<polygon class="st1" points="63.9,24.7 63.9,38.9 98.7,59 98.7,99.2 94.8,101.3 94.8,82.1 85.2,73.6 85.2,106.5 81.5,108.5 
					81.5,70.6 66,56.2 66,117.1 66,131.3 111,106.3 111,51.9 				"/>
			</g>
			<g>
				<polygon class="st1" points="63.9,24.7 63.9,38.9 98.7,59 98.7,99.2 94.8,101.3 94.8,82.1 85.2,73.6 85.2,106.5 81.5,108.5 
					81.5,70.6 66,56.2 66,117.1 66,131.3 111,106.3 111,51.9 				"/>
			</g>
		</g>
		<g>
			<path d="M162.3,88.6c0,2-0.4,3.7-1.2,5.2c-0.8,1.5-1.9,2.8-3.3,3.8s-3,1.8-4.8,2.3c-1.8,0.5-3.8,0.8-5.9,0.8h-22.7V53.7h25.2
				c1.6,0,3.1,0.4,4.4,1.1c1.3,0.7,2.5,1.6,3.4,2.8c0.9,1.1,1.6,2.4,2.2,3.8c0.5,1.4,0.8,2.9,0.8,4.3c0,2.3-0.6,4.5-1.7,6.5
				c-1.1,2-2.8,3.5-5,4.5c2.7,0.8,4.8,2.2,6.4,4.3C161.5,83,162.3,85.5,162.3,88.6z M133.5,61.5v11.9h12.2c1.5,0,2.9-0.5,3.9-1.6
				c1.1-1.1,1.6-2.5,1.6-4.4c0-1.8-0.5-3.2-1.5-4.3c-1-1.1-2.2-1.6-3.7-1.6H133.5z M153.1,86.9c0-0.8-0.1-1.6-0.4-2.4
				c-0.3-0.8-0.7-1.4-1.2-2c-0.5-0.6-1.1-1-1.7-1.4c-0.7-0.3-1.4-0.5-2.2-0.5h-14.1V93h13.6c0.8,0,1.6-0.2,2.4-0.5
				c0.7-0.3,1.4-0.7,1.9-1.3c0.5-0.6,0.9-1.2,1.3-2C152.9,88.5,153.1,87.7,153.1,86.9z"/>
			<path d="M178.1,101.4c-1.7,0-3.2-0.3-4.7-0.8c-1.5-0.6-2.7-1.3-3.8-2.3c-1.1-1-1.9-2.2-2.5-3.5c-0.6-1.3-0.9-2.8-0.9-4.4
				c0-1.6,0.4-3.1,1.1-4.5c0.7-1.4,1.7-2.6,3-3.5c1.3-1,2.9-1.7,4.7-2.3c1.8-0.6,3.8-0.8,6-0.8c1.5,0,3.1,0.1,4.5,0.4
				c1.5,0.3,2.8,0.6,3.9,1.1v-2c0-2.3-0.7-4.1-2-5.3c-1.3-1.2-3.2-1.9-5.8-1.9c-1.9,0-3.7,0.3-5.4,1s-3.6,1.6-5.4,2.9l-2.7-5.6
				c4.5-3,9.3-4.4,14.5-4.4c5,0,8.9,1.2,11.6,3.7c2.8,2.5,4.1,6,4.1,10.6v10.8c0,0.9,0.2,1.6,0.5,2c0.3,0.4,0.9,0.6,1.6,0.7v7.6
				c-1.5,0.3-2.8,0.5-3.9,0.5c-1.7,0-3-0.4-3.9-1.1c-0.9-0.8-1.5-1.7-1.7-3l-0.2-1.9c-1.5,2-3.4,3.6-5.6,4.6
				C183,100.9,180.6,101.4,178.1,101.4z M180.6,94.9c1.5,0,2.9-0.3,4.3-0.8c1.3-0.5,2.4-1.2,3.1-2.1c1-0.8,1.5-1.6,1.5-2.5v-4
				c-1.1-0.4-2.2-0.7-3.4-1c-1.2-0.2-2.4-0.4-3.6-0.4c-2.3,0-4.2,0.5-5.6,1.6c-1.5,1-2.2,2.4-2.2,3.9c0,1.5,0.6,2.8,1.7,3.7
				S178.9,94.9,180.6,94.9z"/>
			<path d="M217.3,101.4c-3.6,0-6.3-1.1-8.2-3.4c-1.9-2.3-2.8-5.7-2.8-10.2V66h8.9v19.8c0,5.3,1.9,8,5.8,8c1.7,0,3.4-0.5,5-1.6
				c1.6-1,2.9-2.6,3.9-4.7V66h8.9v24.5c0,0.9,0.2,1.6,0.5,2c0.3,0.4,0.9,0.6,1.6,0.7v7.6c-0.9,0.2-1.6,0.3-2.2,0.3
				c-0.6,0-1.1,0.1-1.6,0.1c-1.6,0-2.9-0.4-3.9-1.1c-1-0.7-1.6-1.7-1.8-3l-0.2-2.8c-1.5,2.4-3.5,4.2-6,5.4
				C222.9,100.8,220.2,101.4,217.3,101.4z"/>
			<path d="M263.7,101.4c-2.8,0-5.3-0.5-7.6-1.4c-2.3-1-4.2-2.2-5.8-3.9c-1.6-1.6-2.8-3.5-3.7-5.7c-0.9-2.2-1.3-4.4-1.3-6.8
				c0-2.5,0.4-4.8,1.3-7c0.8-2.2,2.1-4.1,3.6-5.8s3.5-3,5.8-3.9c2.3-1,4.8-1.5,7.7-1.5s5.4,0.5,7.6,1.5c2.2,1,4.1,2.3,5.7,3.9
				c1.6,1.6,2.8,3.5,3.6,5.7c0.8,2.2,1.2,4.4,1.2,6.8c0,0.6,0,1.1,0,1.7s-0.1,1-0.2,1.3h-26.8c0.1,1.4,0.5,2.6,1,3.6
				c0.5,1.1,1.2,2,2.1,2.7c0.8,0.8,1.8,1.3,2.9,1.7c1.1,0.4,2.2,0.6,3.3,0.6c1.8,0,3.4-0.4,5-1.3c1.6-0.9,2.6-2,3.2-3.4l7.6,2.1
				c-1.3,2.7-3.3,4.8-6.1,6.5S267.6,101.4,263.7,101.4z M272.8,80.5c-0.2-2.6-1.2-4.7-2.9-6.3c-1.7-1.6-3.8-2.4-6.2-2.4
				c-1.2,0-2.3,0.2-3.3,0.6c-1,0.4-2,1-2.8,1.8c-0.8,0.8-1.4,1.7-2,2.7c-0.5,1.1-0.8,2.2-0.9,3.5H272.8z"/>
			<path d="M308,73.7c-2.7,0-5.1,0.6-7.2,1.6c-2.1,1-3.6,2.5-4.6,4.5v21h-8.9V66h8.2v7.4c0.6-1.2,1.3-2.3,2.2-3.2
				c0.8-0.9,1.7-1.8,2.7-2.5c1-0.7,2-1.2,2.9-1.6c1-0.4,2-0.6,2.9-0.6c0.5,0,0.9,0,1.1,0s0.5,0,0.7,0.1V73.7z"/>
		</g>
		<g>
			<g>
				<path class="st1" d="M312.2,103.4c-4.7,0-8.6-3.8-8.6-8.6s3.8-8.6,8.6-8.6s8.6,3.8,8.6,8.6S316.9,103.4,312.2,103.4z
					 M312.2,88.3c-3.6,0-6.6,2.9-6.6,6.6s2.9,6.6,6.6,6.6c3.6,0,6.6-2.9,6.6-6.6S315.8,88.3,312.2,88.3z"/>
			</g>
			<g>
				<path d="M309.8,98.1v-7.2h3c0.3,0,0.6,0.1,0.8,0.2s0.5,0.3,0.7,0.5c0.2,0.2,0.3,0.5,0.4,0.7c0.1,0.3,0.2,0.5,0.2,0.8
					c0,0.3,0,0.5-0.1,0.8c-0.1,0.2-0.2,0.5-0.3,0.7c-0.1,0.2-0.3,0.4-0.5,0.5c-0.2,0.1-0.4,0.2-0.7,0.3l1.8,2.8h-0.6l-1.7-2.7h-2.3
					v2.7H309.8z M310.4,94.8h2.5c0.2,0,0.4-0.1,0.6-0.2c0.2-0.1,0.4-0.2,0.5-0.4c0.1-0.2,0.2-0.4,0.3-0.6s0.1-0.4,0.1-0.7
					c0-0.2,0-0.5-0.1-0.7s-0.2-0.4-0.3-0.6s-0.3-0.3-0.5-0.4c-0.2-0.1-0.4-0.1-0.6-0.1h-2.5V94.8z"/>
			</g>
		</g>
	</g>
</g>
</svg>
