<?xml version="1.0" encoding="utf-8"?>
<!-- Generator: Adobe Illustrator 23.0.3, SVG Export Plug-In . SVG Version: 6.00 Build 0)  -->
<svg version="1.1" id="Capa_1" xmlns="http://www.w3.org/2000/svg" xmlns:xlink="http://www.w3.org/1999/xlink" x="0px" y="0px"
	 viewBox="0 0 512 512" style="enable-background:new 0 0 512 512;" xml:space="preserve">
<style type="text/css">
	.st0{fill:#FFFFFF;}
</style>
<path d="M387.5,374c-3.7,0-7.3-1.5-10-4.1c-5.5-5.5-5.5-14.4,0-19.8l80.5-80H20c-7.7,0-14-6.3-14-14s6.3-14,14-14h438.1l-80.5-80
	c-5.5-5.5-5.5-14.4,0-19.8c2.6-2.6,6.3-4.1,10-4.1c3.7,0,7.3,1.4,9.9,4l104.5,104c2.6,2.6,4.2,6.3,4.2,10c0,3.4-1.2,6.7-3.5,9.2
	l-0.7,0.8l-0.5,0.4L397.3,370C394.8,372.6,391.2,374,387.5,374z"/>
<path class="st0" d="M387.5,376c-4.3,0-8.3-1.7-11.4-4.7c-6.2-6.2-6.2-16.4,0-22.6l77-76.6H20c-8.8,0-16-7.2-16-16s7.2-16,16-16
	h433.3l-77-76.6c-6.3-6.3-6.3-16.4,0-22.7c3-3,7.2-4.7,11.4-4.7c4.3,0,8.3,1.6,11.3,4.6l104.5,104c3,3,4.7,7.2,4.7,11.4
	c0,3.9-1.4,7.6-3.9,10.6l-0.9,1l-0.6,0.4L398.8,371.4C395.8,374.4,391.8,376,387.5,376z"/>
</svg>
